<?xml version="1.0" encoding="UTF-8" standalone="no"?>
<svg
   xmlns:dc="http://purl.org/dc/elements/1.1/"
   xmlns:cc="http://creativecommons.org/ns#"
   xmlns:rdf="http://www.w3.org/1999/02/22-rdf-syntax-ns#"
   xmlns:svg="http://www.w3.org/2000/svg"
   xmlns="http://www.w3.org/2000/svg"
   xmlns:sodipodi="http://sodipodi.sourceforge.net/DTD/sodipodi-0.dtd"
   xmlns:inkscape="http://www.inkscape.org/namespaces/inkscape"
   width="585px"
   height="151px"
   viewBox="0 0 585 151"
   version="1.1"
   id="svg24"
   sodipodi:docname="deco-benefit-colored.svg"
   inkscape:version="0.92.3 (2405546, 2018-03-11)">
  <metadata
     id="metadata28">
    <rdf:RDF>
      <cc:Work
         rdf:about="">
        <dc:format>image/svg+xml</dc:format>
        <dc:type
           rdf:resource="http://purl.org/dc/dcmitype/StillImage" />
      </cc:Work>
    </rdf:RDF>
  </metadata>
  <sodipodi:namedview
     pagecolor="#ffffff"
     bordercolor="#666666"
     borderopacity="1"
     objecttolerance="10"
     gridtolerance="10"
     guidetolerance="10"
     inkscape:pageopacity="0"
     inkscape:pageshadow="2"
     inkscape:window-width="1366"
     inkscape:window-height="700"
     id="namedview26"
     showgrid="false"
     inkscape:zoom="0.42905983"
     inkscape:cx="292.5"
     inkscape:cy="75.5"
     inkscape:window-x="0"
     inkscape:window-y="0"
     inkscape:window-maximized="1"
     inkscape:current-layer="svg24" />
  <!-- Generator: Sketch 55.2 (78181) - https://sketchapp.com -->
  <title
     id="title2">Group 3</title>
  <desc
     id="desc4">Created with Sketch.</desc>
  <defs
     id="defs16">
    <linearGradient
       x1="34.1894281%"
       y1="14.3140713%"
       x2="132.383617%"
       y2="100%"
       id="linearGradient-1">
      <stop
         stop-color="#FFA000"
         offset="0%"
         id="stop6" />
      <stop
         stop-color="#FFECB3"
         offset="100%"
         id="stop8" />
    </linearGradient>
    <linearGradient
       x1="66.8412844%"
       y1="30.62426%"
       x2="-21.0581447%"
       y2="100%"
       id="linearGradient-2">
      <stop
         stop-color="#4CAF50"
         offset="0%"
         id="stop11" />
      <stop
         stop-color="#C8E6C9"
         offset="100%"
         id="stop13" />
    </linearGradient>
    <filter
       style="color-interpolation-filters:sRGB;"
       inkscape:label="Invert"
       id="filter853">
      <feColorMatrix
         values="0 -1 0 0 1 -1 0 0 0 1 0 0 -1 0 1 0.21 0.72 0.07 0.00999999 0 "
         result="color2"
         id="feColorMatrix851" />
    </filter>
  </defs>
  <g
     id="Page-1"
     stroke="none"
     stroke-width="1"
     fill="none"
     fill-rule="evenodd"
     style="filter:url(#filter853)">
    <g
       id="Group-2"
       transform="translate(-143.000000, -88.000000)">
      <g
         id="Group-3"
         transform="translate(132.623862, 70.912032)">
        <path
           d="M15,67.3628158 C15,70.2420142 16.5400613,72.9026456 19.0401691,74.3422448 L45.8435518,89.7767212 C48.3436597,91.2163204 51.4237822,91.2163204 53.9238901,89.7767212 L80.7272727,74.3422448 C83.2273806,72.9026456 84.7674419,70.2420142 84.7674419,67.3628158 L84.7674419,36.4937339 C84.7674419,33.6144064 83.2273806,30.9539041 80.7272727,29.5141758 L53.9238901,14.0796994 C51.4237822,12.6401002 48.3436597,12.6401002 45.8435518,14.0796994 L19.0401691,29.5141758 C16.5400613,30.9539041 15,33.6144064 15,36.4937339 L15,67.3628158 Z"
           id="Fill-1"
           fill="url(#linearGradient-1)"
           transform="translate(49.883721, 51.928210) rotate(-330.000000) translate(-49.883721, -51.928210) " />
        <path
           d="M520.561173,148.252603 C520.561173,151.131802 522.101234,153.792433 524.601342,155.232033 L551.404725,170.666509 C553.904833,172.106108 556.984955,172.106108 559.485063,170.666509 L586.288446,155.232033 C588.788553,153.792433 590.328615,151.131802 590.328615,148.252603 L590.328615,117.383522 C590.328615,114.504194 588.788553,111.843692 586.288446,110.403963 L559.485063,94.9694871 C556.984955,93.5298879 553.904833,93.5298879 551.404725,94.9694871 L524.601342,110.403963 C522.101234,111.843692 520.561173,114.504194 520.561173,117.383522 L520.561173,148.252603 Z"
           id="path19"
           fill="url(#linearGradient-2)"
           transform="translate(555.444894, 132.817998) rotate(-330.000000) translate(-555.444894, -132.817998) " />
      </g>
    </g>
  </g>
</svg>
