<svg version="1.1" xmlns="http://www.w3.org/2000/svg" xmlns:xlink="http://www.w3.org/1999/xlink" width="48" height="48"><defs><linearGradient x1="6.95998" y1="4.61837" x2="81.98239" y2="82.77984" gradientUnits="userSpaceOnUse" id="color-1"><stop offset="0" stop-color="#000000" stop-opacity="0.3"></stop><stop offset="1" stop-color="#000000" stop-opacity="0"></stop></linearGradient><filter id="dropshadow-base"><feColorMatrix type="matrix" values="0 0 0 0 0  0 0 0 0 0  0 0 0 0 0  0 0 0 .8 0"></feColorMatrix> <feOffset dx="0" dy="1"></feOffset> <feGaussianBlur stdDeviation="1"></feGaussianBlur> <feComposite in="SourceGraphic"></feComposite></filter><filter id="dropshadow-banner" x="-10%" y="-10%" width="120%" height="130%"><feColorMatrix type="matrix" values="0 0 0 0 0  0 0 0 0 0  0 0 0 0 0  0 0 0 .4 0"></feColorMatrix> <feOffset dx="0" dy="1"></feOffset> <feGaussianBlur stdDeviation="0.5"></feGaussianBlur> <feComposite in="SourceGraphic"></feComposite></filter></defs><g fill="none" fill-rule="nonzero" stroke="none" stroke-width="none" stroke-linecap="butt" stroke-linejoin="miter" stroke-miterlimit="10" stroke-dasharray="" stroke-dashoffset="0" font-family="none" font-weight="none" font-size="none" text-anchor="none" style="mix-blend-mode: normal"><path d="M2,24c0,-12.15026 9.84974,-22 22,-22c12.15026,0 22,9.84974 22,22c0,12.15026 -9.84974,22 -22,22c-12.15026,0 -22,-9.84974 -22,-22z" id="base 1 5" fill="#03a9f4" stroke-width="1"></path><path d="M7.68214,34.82957c-0.44619,-0.44619 -0.72216,-1.06252 -0.72216,-1.74288c0,-1.0086 0.6068,-1.8724 1.47365,-2.25381c0.10709,-1.52055 0.8179,-3.26241 2.12939,-5.1195c0.28656,-0.40386 0.6017,-0.80771 0.93416,-1.21156c-0.33245,-0.40385 -0.64759,-0.80769 -0.93416,-1.21257c-2.16201,-3.06049 -2.71884,-5.81604 -1.56848,-7.75574c0.95353,-1.60723 2.94117,-2.45675 5.74976,-2.45675c0.95149,0 1.96826,0.09892 3.02785,0.28656c1.00656,-2.68417 2.37617,-4.69116 3.96506,-5.70589c-0.04488,-0.18459 -0.07445,-0.37529 -0.07445,-0.57416c0,-1.36146 1.10346,-2.46492 2.46492,-2.46492c0.6806,0 1.29672,0.27576 1.74261,0.72165l8.81459,8.81459c1.17645,0.12437 2.40733,0.47217 3.22442,1.28926l1.9214,1.9214c-0.05429,-0.66835 -0.24314,-1.2828 -0.56888,-1.83176c-0.17511,-0.29484 -0.38495,-0.56418 -0.62823,-0.80746l7.27699,7.27699c0.05918,0.65773 0.08941,1.32381 0.08941,1.99695c0,12.15026 -9.84974,22 -22,22c-2.06768,0 -4.06874,-0.28525 -5.96597,-0.81853z" fill="url(#color-1)" stroke-width="1"></path><path d="M27.84288,25.29015c-0.17337,-0.29677 -0.40589,-0.53031 -0.70164,-0.69552c-0.20498,-0.11728 -0.49971,-0.2264 -0.88521,-0.32226c0.36102,-0.1234 0.64963,-0.27637 0.86889,-0.46606c0.21926,-0.18765 0.38855,-0.40385 0.50379,-0.64555c0.11524,-0.24578 0.17541,-0.50379 0.17541,-0.77608c0,-0.37325 -0.10912,-0.71795 -0.33042,-1.03104c-0.2213,-0.31309 -0.53541,-0.55376 -0.94435,-0.71999c-0.15909,-0.06527 -0.3498,-0.11422 -0.55376,-0.15399v-1.45325h-1.39614v1.35534h-0.89744v-1.35534h-1.39614v1.35534h-2.12939v1.14016h0.32532c0.2162,0 0.36204,0.01938 0.44056,0.05915c0.07649,0.03875 0.13054,0.0928 0.16215,0.15909c0.03161,0.06629 0.04691,0.22334 0.04691,0.46708v4.59634c0,0.24068 -0.0153,0.39671 -0.04691,0.46402c-0.03161,0.06731 -0.08567,0.12238 -0.16215,0.15909c-0.07751,0.03773 -0.22334,0.05609 -0.44056,0.05609h-0.32532v1.14016h2.12939v1.35534h1.39512v-1.35534h0.79444c0.03569,0 0.06833,-0.00102 0.10504,-0.00102v1.35636h1.3941v-1.47262c0.23456,-0.04487 0.4426,-0.10198 0.61597,-0.17337c0.48238,-0.19173 0.85461,-0.4732 1.11772,-0.84237c0.26413,-0.36714 0.39569,-0.76997 0.39569,-1.20747c-0.00204,-0.36306 -0.0877,-0.69552 -0.26107,-0.99229zM23.16903,21.7116h0.90356c0.52827,0 0.89336,0.03263 1.09937,0.0979c0.20294,0.06425 0.36102,0.17439 0.47014,0.32736c0.10708,0.15399 0.16113,0.33858 0.16113,0.55478c0,0.20906 -0.05711,0.39263 -0.17133,0.55274c-0.1132,0.15909 -0.28453,0.27739 -0.50991,0.35898c-0.22742,0.07751 -0.57518,0.11728 -1.0494,0.11728h-0.90356zM25.72165,26.80357c-0.15909,0.20498 -0.35694,0.3396 -0.58742,0.40385c-0.22946,0.06425 -0.51807,0.09892 -0.86991,0.09892h-0.60169c-0.19989,0 -0.32226,-0.01122 -0.36816,-0.03263c-0.04589,-0.02142 -0.07751,-0.06017 -0.09688,-0.1132c-0.01632,-0.04385 -0.0255,-0.19173 -0.02957,-0.44566v-1.78469h1.06673c0.46708,0 0.81484,0.04385 1.04328,0.13054c0.22844,0.08567 0.39977,0.21416 0.51297,0.38345c0.11422,0.17031 0.17031,0.37631 0.17031,0.62107c0.00204,0.28759 -0.07853,0.53541 -0.23966,0.73835zM39.82374,30.83288c-0.10606,-1.51851 -0.81892,-3.25935 -2.13041,-5.1195c-0.28555,-0.40385 -0.60169,-0.80872 -0.93416,-1.21155c0.33246,-0.40385 0.64861,-0.8077 0.93416,-1.21257c2.16202,-3.0615 2.71884,-5.81706 1.56849,-7.75574c-0.95455,-1.60724 -2.94117,-2.45675 -5.74975,-2.45675c-0.95149,0 -1.96928,0.09892 -3.02887,0.28657c-1.00554,-2.68417 -2.37618,-4.69118 -3.96609,-5.7059c0.04385,-0.18561 0.07445,-0.37631 0.07445,-0.57416c0.00102,-1.36146 -1.10243,-2.46491 -2.46389,-2.46491c-1.36146,0 -2.46491,1.10345 -2.46491,2.46491c0,0.19887 0.02957,0.38957 0.07445,0.57416c-1.58888,1.01472 -2.9585,3.02173 -3.96507,5.7059c-1.05959,-0.18765 -2.07636,-0.28657 -3.02785,-0.28657c-2.80859,0 -4.79622,0.84951 -5.74975,2.45675c-1.15036,1.9397 -0.59354,4.69526 1.56849,7.75574c0.28657,0.40487 0.60169,0.80872 0.93416,1.21257c-0.33246,0.40385 -0.64759,0.8077 -0.93416,1.21155c-1.31149,1.85709 -2.02231,3.59895 -2.12939,5.1195c-0.86685,0.38141 -1.47364,1.2452 -1.47364,2.25381c0,1.36044 1.10345,2.46491 2.46491,2.46491c0.51603,0 0.99433,-0.15909 1.39002,-0.43036c1.02492,0.53031 2.34049,0.80872 3.93039,0.80872c0.95149,0 1.96724,-0.09994 3.02683,-0.28657c1.48486,3.95997 3.76008,6.45139 6.35655,6.45139c2.59647,0 4.87067,-2.49346 6.35451,-6.45139c1.05959,0.18765 2.07534,0.28657 3.02887,0.28657c0,0 0,0 0.00102,0c1.58888,0 2.90445,-0.28147 3.93039,-0.80872c0.39671,0.27127 0.87297,0.43036 1.389,0.43036c1.36146,0 2.46491,-1.10345 2.46491,-2.46491c-0.00102,-1.0086 -0.60781,-1.87239 -1.47364,-2.25381zM33.51206,14.09557c1.69392,0 3.91306,0.3396 4.87067,1.95704c0.91886,1.55115 0.36306,3.97424 -1.52361,6.64822c-0.23966,0.3396 -0.50073,0.68226 -0.7771,1.02084c-1.15546,-1.27988 -2.52814,-2.53018 -4.06297,-3.71113c-0.24476,-2.06616 -0.64963,-3.9773 -1.19523,-5.66205c0.94639,-0.15909 1.852,-0.25292 2.68825,-0.25292zM27.76843,30.64421c-1.19727,0.7098 -2.42004,1.33801 -3.63974,1.88769c-1.21971,-0.54866 -2.44349,-1.17585 -3.64076,-1.88769c-1.15648,-0.68532 -2.24769,-1.42367 -3.27465,-2.18956c-0.14074,-1.27274 -0.22334,-2.59239 -0.22334,-3.94977c0,-1.3584 0.08261,-2.67703 0.22334,-3.94977c1.02696,-0.76691 2.11817,-1.50424 3.27567,-2.19058c1.19829,-0.7098 2.42106,-1.33801 3.63974,-1.88667c1.21971,0.54866 2.44349,1.17585 3.63974,1.88667c1.1575,0.68634 2.24871,1.42367 3.27465,2.19058c0.14176,1.27274 0.22436,2.59239 0.22436,3.94977c0,1.35738 -0.08261,2.67703 -0.22436,3.94977c-1.02594,0.76487 -2.11613,1.50424 -3.27465,2.18956zM30.86461,29.84671c-0.25496,1.66333 -0.61903,3.20836 -1.07897,4.59736c-1.40735,-0.31309 -2.88813,-0.772 -4.39747,-1.38084c0.96781,-0.4681 1.93766,-0.97393 2.90139,-1.54503c0.89438,-0.53031 1.75103,-1.08917 2.57505,-1.67149zM22.86921,33.06629c-1.50934,0.60883 -2.99012,1.06775 -4.39747,1.37982c-0.4579,-1.38696 -0.82402,-2.93403 -1.07795,-4.59736c0.823,0.58028 1.67863,1.1422 2.57301,1.67353c0.96271,0.56804 1.93358,1.07591 2.90241,1.54401zM16.09759,27.58475c-1.21971,-0.99331 -2.31194,-2.02741 -3.25119,-3.08088c0.93926,-1.0545 2.03148,-2.08961 3.25119,-3.0819c-0.07853,1.00044 -0.12748,2.02537 -0.12748,3.0819c0,1.05654 0.04895,2.08146 0.12748,3.08088zM17.39379,19.15898c0.25394,-1.66333 0.62005,-3.2104 1.07795,-4.59736c1.40735,0.31207 2.88813,0.77099 4.39747,1.3788c-0.96883,0.46708 -1.93868,0.97495 -2.90037,1.54503c-0.8954,0.53031 -1.75103,1.09223 -2.57505,1.67353zM25.38817,15.94043c1.50832,-0.60781 2.99012,-1.06673 4.39747,-1.3788c0.4579,1.38594 0.82402,2.93403 1.07897,4.59736c-0.82402,-0.5813 -1.67863,-1.14322 -2.57301,-1.67353c-0.96475,-0.57008 -1.9346,-1.07795 -2.90343,-1.54503zM32.15978,21.42095c1.21971,0.99229 2.31398,2.02741 3.25119,3.0819c-0.93824,1.0545 -2.03148,2.08961 -3.25119,3.08088c0.07955,-0.99943 0.12748,-2.02435 0.12748,-3.08088c0,-1.05654 -0.04895,-2.08248 -0.12748,-3.0819zM22.19408,8.59159c0.45076,0.5762 1.14526,0.95455 1.9346,0.95455c0.78934,0 1.48384,-0.37733 1.9346,-0.95455c1.31251,0.89234 2.47919,2.65664 3.37561,4.99407c-1.70004,0.38345 -3.49085,0.98107 -5.31021,1.77449c-1.81936,-0.79342 -3.60915,-1.39104 -5.31021,-1.77449c0.89642,-2.33743 2.0631,-4.10172 3.37561,-4.99407zM11.39723,22.70082c-1.88769,-2.67397 -2.44349,-5.09707 -1.52361,-6.64822c0.95863,-1.61744 3.17878,-1.95704 4.87169,-1.95704c0.83625,0 1.74186,0.09382 2.68723,0.25496c-0.54458,1.68475 -0.94945,3.59487 -1.19421,5.66205c-1.53687,1.17891 -2.90955,2.42921 -4.06399,3.71113c-0.27637,-0.34062 -0.53643,-0.68328 -0.7771,-1.02288zM14.74531,34.91013c-1.00962,0 -2.20383,-0.12748 -3.20836,-0.57008c0.21926,-0.36714 0.35388,-0.79342 0.35388,-1.25336c0,-1.33801 -1.06877,-2.42208 -2.39862,-2.45879c0.16011,-1.27274 0.79546,-2.75046 1.90503,-4.322c0.24068,-0.34062 0.50175,-0.68124 0.7771,-1.02186c1.15444,1.2809 2.52712,2.53018 4.06399,3.71113c0.24476,2.06514 0.64963,3.97526 1.19319,5.66307c-0.94435,0.15807 -1.84996,0.2519 -2.68621,0.2519zM24.12869,41.07495c-2.08554,0 -3.99158,-2.21607 -5.31021,-5.65491c1.70106,-0.38243 3.49085,-0.98005 5.31021,-1.77449c1.81936,0.79342 3.60915,1.39104 5.31021,1.77449c-1.31863,3.43884 -3.22468,5.65491 -5.31021,5.65491zM33.51206,34.91013c-0.83625,0 -1.74186,-0.09586 -2.68621,-0.25496c0.54356,-1.68475 0.94945,-3.59283 1.19319,-5.66307c1.53687,-1.17789 2.90955,-2.4282 4.06297,-3.71113c0.27637,0.34062 0.53541,0.68124 0.7771,1.02186c1.10957,1.57154 1.74491,3.05131 1.90605,4.32302c-1.33189,0.03569 -2.40066,1.12078 -2.40066,2.45879c0,0.45994 0.13462,0.88622 0.3549,1.25438c-1.00554,0.4426 -2.1967,0.5711 -3.20734,0.5711z" fill="none" stroke-width="0"></path><path d="M28.10395,26.28244c0,0.4375 -0.13156,0.84033 -0.39569,1.20747c-0.26311,0.36918 -0.63535,0.65065 -1.11772,0.84237c-0.17337,0.07139 -0.38141,0.1285 -0.61597,0.17337v1.47262h-1.3941v-1.35636c-0.03671,0 -0.06935,0.00102 -0.10504,0.00102h-0.79444v1.35534h-1.39512v-1.35534h-2.12939v-1.14016h0.32532c0.21722,0 0.36306,-0.01836 0.44056,-0.05609c0.07649,-0.03671 0.13054,-0.09178 0.16215,-0.15909c0.03161,-0.06731 0.04691,-0.22334 0.04691,-0.46402v-4.59634c0,-0.24374 -0.0153,-0.40079 -0.04691,-0.46708c-0.03161,-0.06629 -0.08567,-0.12034 -0.16215,-0.15909c-0.07853,-0.03977 -0.22436,-0.05915 -0.44056,-0.05915h-0.32532v-1.14016h2.12939v-1.35534h1.39614v1.35534h0.89744v-1.35534h1.39614v1.45325c0.20396,0.03977 0.39467,0.08872 0.55376,0.15399c0.40895,0.16623 0.72305,0.40691 0.94435,0.71999c0.2213,0.31309 0.33042,0.65778 0.33042,1.03104c0,0.27229 -0.06017,0.53031 -0.17541,0.77608c-0.11524,0.2417 -0.28453,0.4579 -0.50379,0.64555c-0.21926,0.18969 -0.50787,0.34266 -0.86889,0.46606c0.38549,0.09586 0.68022,0.20498 0.88521,0.32226c0.29575,0.16521 0.52827,0.39875 0.70164,0.69552c0.17337,0.29677 0.25903,0.62923 0.26107,0.99229zM23.16903,23.72064h0.90356c0.47422,0 0.82198,-0.03977 1.0494,-0.11728c0.22538,-0.08159 0.39671,-0.19989 0.50991,-0.35898c0.11422,-0.16011 0.17133,-0.34368 0.17133,-0.55274c0,-0.2162 -0.05405,-0.40079 -0.16113,-0.55478c-0.10912,-0.15297 -0.26719,-0.26311 -0.47014,-0.32736c-0.206,-0.06527 -0.5711,-0.0979 -1.09937,-0.0979h-0.90356zM25.96131,26.06521c0,-0.24476 -0.05609,-0.45076 -0.17031,-0.62107c-0.1132,-0.16929 -0.28453,-0.29779 -0.51297,-0.38345c-0.22844,-0.08668 -0.5762,-0.13054 -1.04328,-0.13054h-1.06673v1.78469c0.00408,0.25394 0.01326,0.40181 0.02957,0.44566c0.01938,0.05303 0.05099,0.09178 0.09688,0.1132c0.04589,0.02142 0.16827,0.03263 0.36816,0.03263h0.60169c0.35184,0 0.64045,-0.03467 0.86991,-0.09892c0.23048,-0.06425 0.42833,-0.19887 0.58742,-0.40385c0.16113,-0.20294 0.2417,-0.45076 0.23966,-0.73835zM41.29738,33.08669c0,1.36146 -1.10345,2.46491 -2.46491,2.46491c-0.51603,0 -0.99229,-0.15909 -1.389,-0.43036c-1.02594,0.52725 -2.34151,0.80872 -3.93039,0.80872c-0.00102,0 -0.00102,0 -0.00102,0c-0.95353,0 -1.96928,-0.09892 -3.02887,-0.28657c-1.48384,3.95793 -3.75804,6.45139 -6.35451,6.45139c-2.59647,0 -4.87169,-2.49142 -6.35655,-6.45139c-1.05959,0.18663 -2.07534,0.28657 -3.02683,0.28657c-1.5899,0 -2.90547,-0.27841 -3.93039,-0.80872c-0.39569,0.27127 -0.87399,0.43036 -1.39002,0.43036c-1.36146,0 -2.46491,-1.10447 -2.46491,-2.46491c0,-1.0086 0.60679,-1.87239 1.47364,-2.25381c0.10708,-1.52055 0.8179,-3.26241 2.12939,-5.1195c0.28657,-0.40385 0.60169,-0.8077 0.93416,-1.21155c-0.33246,-0.40385 -0.64759,-0.8077 -0.93416,-1.21257c-2.16202,-3.06048 -2.71884,-5.81604 -1.56849,-7.75574c0.95353,-1.60724 2.94117,-2.45675 5.74975,-2.45675c0.95149,0 1.96826,0.09892 3.02785,0.28657c1.00656,-2.68417 2.37618,-4.69118 3.96507,-5.7059c-0.04487,-0.18459 -0.07445,-0.37529 -0.07445,-0.57416c0,-1.36146 1.10345,-2.46491 2.46491,-2.46491c1.36146,0 2.46491,1.10345 2.46389,2.46491c0,0.19785 -0.03059,0.38855 -0.07445,0.57416c1.5899,1.01472 2.96054,3.02173 3.96609,5.7059c1.05959,-0.18765 2.07738,-0.28657 3.02887,-0.28657c2.80859,0 4.7952,0.84951 5.74975,2.45675c1.15036,1.93868 0.59354,4.69424 -1.56849,7.75574c-0.28555,0.40487 -0.60169,0.80872 -0.93416,1.21257c0.33246,0.40283 0.64861,0.8077 0.93416,1.21155c1.31149,1.86015 2.02435,3.60099 2.13041,5.1195c0.86583,0.38141 1.47262,1.2452 1.47364,2.25381zM30.82381,14.34848c0.5456,1.68475 0.95047,3.59589 1.19523,5.66205c1.53483,1.18095 2.90751,2.43125 4.06297,3.71113c0.27637,-0.33858 0.53745,-0.68124 0.7771,-1.02084c1.88667,-2.67397 2.44247,-5.09707 1.52361,-6.64822c-0.95761,-1.61744 -3.17674,-1.95704 -4.87067,-1.95704c-0.83625,0 -1.74186,0.09382 -2.68825,0.25292zM31.04308,28.45466c0.14176,-1.27274 0.22436,-2.59239 0.22436,-3.94977c0,-1.35738 -0.08261,-2.67703 -0.22436,-3.94977c-1.02594,-0.76691 -2.11715,-1.50424 -3.27465,-2.19058c-1.19625,-0.71082 -2.42004,-1.33801 -3.63974,-1.88667c-1.21869,0.54866 -2.44145,1.17687 -3.63974,1.88667c-1.1575,0.68634 -2.24871,1.42367 -3.27567,2.19058c-0.14074,1.27274 -0.22334,2.59137 -0.22334,3.94977c0,1.35738 0.08261,2.67703 0.22334,3.94977c1.02696,0.76589 2.11817,1.50424 3.27465,2.18956c1.19727,0.71184 2.42106,1.33903 3.64076,1.88769c1.21971,-0.54968 2.44247,-1.17789 3.63974,-1.88769c1.15852,-0.68532 2.24871,-1.42469 3.27465,-2.18956zM28.28956,31.5182c-0.96373,0.5711 -1.93358,1.07693 -2.90139,1.54503c1.50934,0.60883 2.99012,1.06775 4.39747,1.38084c0.45994,-1.389 0.82402,-2.93403 1.07897,-4.59736c-0.82402,0.58232 -1.68067,1.14118 -2.57505,1.67149zM19.96679,31.52228c-0.89438,-0.53133 -1.75001,-1.09325 -2.57301,-1.67353c0.25394,1.66333 0.62005,3.2104 1.07795,4.59736c1.40735,-0.31207 2.88813,-0.77099 4.39747,-1.37982c-0.96883,-0.4681 -1.9397,-0.97597 -2.90241,-1.54401zM15.97011,24.50387c0,-1.05654 0.04895,-2.08146 0.12748,-3.0819c-1.21971,0.99229 -2.31194,2.02741 -3.25119,3.0819c0.93926,1.05348 2.03148,2.08757 3.25119,3.08088c-0.07853,-0.99943 -0.12748,-2.02435 -0.12748,-3.08088zM19.96883,17.48546c0.96169,-0.57008 1.93154,-1.07795 2.90037,-1.54503c-1.50934,-0.60781 -2.99012,-1.06673 -4.39747,-1.3788c-0.4579,1.38696 -0.82402,2.93403 -1.07795,4.59736c0.82402,-0.5813 1.67965,-1.14322 2.57505,-1.67353zM28.2916,17.48546c0.89438,0.53031 1.74899,1.09223 2.57301,1.67353c-0.25496,-1.66333 -0.62107,-3.21142 -1.07897,-4.59736c-1.40735,0.31207 -2.88915,0.77099 -4.39747,1.3788c0.96883,0.46708 1.93868,0.97495 2.90343,1.54503zM32.28726,24.50285c0,1.05654 -0.04793,2.08146 -0.12748,3.08088c1.21971,-0.99127 2.31296,-2.02639 3.25119,-3.08088c-0.93722,-1.0545 -2.03148,-2.08961 -3.25119,-3.0819c0.07853,0.99943 0.12748,2.02537 0.12748,3.0819zM18.81848,13.58566c1.70106,0.38345 3.49085,0.98107 5.31021,1.77449c1.81936,-0.79342 3.61017,-1.39104 5.31021,-1.77449c-0.89642,-2.33743 -2.0631,-4.10172 -3.37561,-4.99407c-0.45076,0.57722 -1.14526,0.95455 -1.9346,0.95455c-0.78934,0 -1.48384,-0.37835 -1.9346,-0.95455c-1.31251,0.89234 -2.47919,2.65664 -3.37561,4.99407zM12.17434,23.7237c1.15444,-1.28192 2.52712,-2.53222 4.06399,-3.71113c0.24476,-2.06718 0.64963,-3.9773 1.19421,-5.66205c-0.94537,-0.16113 -1.85098,-0.25496 -2.68723,-0.25496c-1.6929,0 -3.91306,0.3396 -4.87169,1.95704c-0.91988,1.55115 -0.36408,3.97424 1.52361,6.64822c0.24068,0.3396 0.50073,0.68226 0.7771,1.02288zM17.43152,34.65823c-0.54356,-1.6878 -0.94843,-3.59793 -1.19319,-5.66307c-1.53687,-1.18095 -2.90955,-2.43023 -4.06399,-3.71113c-0.27535,0.34062 -0.53643,0.68124 -0.7771,1.02186c-1.10957,1.57154 -1.74491,3.04927 -1.90503,4.322c1.32985,0.03671 2.39862,1.12078 2.39862,2.45879c0,0.45994 -0.13462,0.88622 -0.35388,1.25336c1.00452,0.4426 2.19874,0.57008 3.20836,0.57008c0.83625,0 1.74186,-0.09382 2.68621,-0.2519zM29.4389,35.42004c-1.70106,-0.38345 -3.49085,-0.98107 -5.31021,-1.77449c-1.81936,0.79444 -3.60915,1.39206 -5.31021,1.77449c1.31863,3.43884 3.22468,5.65491 5.31021,5.65491c2.08554,0 3.99158,-2.21607 5.31021,-5.65491zM33.51206,34.91013c1.01064,0 2.20179,-0.1285 3.20734,-0.5711c-0.22028,-0.36816 -0.3549,-0.79444 -0.3549,-1.25438c0,-1.33801 1.06877,-2.4231 2.40066,-2.45879c-0.16113,-1.27172 -0.79648,-2.75148 -1.90605,-4.32302c-0.2417,-0.34062 -0.50073,-0.68124 -0.7771,-1.02186c-1.15342,1.28294 -2.5261,2.53324 -4.06297,3.71113c-0.24374,2.07024 -0.64963,3.97832 -1.19319,5.66307c0.94435,0.15909 1.84996,0.25496 2.68621,0.25496z" fill="#ffffff" stroke-width="0"></path><path d="M2,24c0,-12.15026 9.84974,-22 22,-22c12.15026,0 22,9.84974 22,22c0,12.15026 -9.84974,22 -22,22c-12.15026,0 -22,-9.84974 -22,-22z" id="base 1 1 1" fill="none" stroke-width="1"></path><g id="Capa_1 1 1" fill="#000000" stroke-width="1" font-family="Roboto, sans-serif" font-weight="400" font-size="14" text-anchor="start"><g></g><g></g><g></g><g></g><g></g><g></g><g></g><g></g><g></g><g></g><g></g><g></g><g></g><g></g><g></g><g></g></g><rect x="2" y="2" width="44" height="22" fill="none" stroke-width="1"></rect><path d="M2,24v-22h44v22z" fill="none" stroke-width="1"></path><path d="M2,24v-22h44v22z" fill="none" stroke-width="1"></path><path d="M2,24v-22h44v22z" fill="none" stroke-width="1"></path><path d="M2,24v-22h44v22z" fill="none" stroke-width="1"></path><path d="M24,2c12.15026,0 22,9.84974 22,22h-44c0,-12.15026 9.84974,-22 22,-22z" id="base 1 1 1" fill-opacity="0.1" fill="#000000" stroke-width="1"></path></g></svg>